<svg width="1440" height="1024" viewBox="0 0 1440 1024" fill="none" xmlns="http://www.w3.org/2000/svg">
<g opacity="0.5">
<path fill-rule="evenodd" clip-rule="evenodd" d="M-21.4409 335.21C57.6778 338.563 117.718 397.696 166.96 459.746C216.027 521.575 260.132 593.427 244.963 670.903C229.333 750.738 166.54 813.365 91.5619 844.84C21.0847 874.426 -60.7678 866.961 -125.597 826.461C-183.205 790.472 -195.895 719.536 -213.895 654.016C-233.574 582.386 -269.363 506.47 -230.977 442.882C-188.268 372.133 -103.976 331.712 -21.4409 335.21Z" fill="#BFBEFC"/>
<path d="M52.8414 560.638C46.7659 561.596 41.0152 564.02 36.0869 567.7C32.3344 570.501 29.1448 573.967 26.669 577.913C25.3805 579.966 22.7822 580.913 20.5935 579.87C18.4048 578.828 17.458 576.196 18.7014 574.115C21.8207 568.894 25.9389 564.321 30.8347 560.665C36.9058 556.132 43.99 553.147 51.4743 551.967C58.9586 550.787 66.6177 551.448 73.789 553.894C79.5719 555.866 84.8972 558.95 89.4715 562.958C91.2948 564.555 91.2038 567.351 89.4419 569.016C87.68 570.681 84.9166 570.58 83.0588 569.023C79.4893 566.03 75.3881 563.714 70.9557 562.203C65.1343 560.218 58.9169 559.681 52.8414 560.638Z" fill="#AF05FA"/>
<path fill-rule="evenodd" clip-rule="evenodd" d="M217.274 669.512C217.274 686.184 203.517 699.699 186.548 699.699C169.579 699.699 155.823 686.184 155.823 669.512C155.823 652.84 169.579 639.325 186.548 639.325C203.517 639.325 217.274 652.84 217.274 669.512ZM206.3 669.512C206.3 679.941 197.641 688.725 186.548 688.725C175.455 688.725 166.796 679.941 166.796 669.512C166.796 659.083 175.455 650.299 186.548 650.299C197.641 650.299 206.3 659.083 206.3 669.512Z" fill="#0576F0"/>
<path d="M62.2658 381.322C60.6041 383.087 60.688 385.865 62.453 387.527L88.0206 411.597C89.7857 413.259 92.5636 413.175 94.2253 411.41L118.295 385.842C119.957 384.077 119.873 381.299 118.108 379.638L92.5406 355.568C90.7755 353.906 87.9975 353.99 86.3359 355.755L62.2658 381.322Z" fill="#E3026F"/>
<circle cx="-12.8319" cy="291.168" r="13.1681" fill="#E61B00"/>
<path d="M5.72827 726.527C3.62934 726.294 2.06507 728.42 2.91258 730.354L17.405 763.431C18.2525 765.365 20.8761 765.657 22.1276 763.956L43.5268 734.867C44.7782 733.165 43.7188 730.748 41.6199 730.514L5.72827 726.527Z" fill="#EE6D00"/>
<path d="M149.662 861.553C150.734 863.727 153.366 864.621 155.54 863.549C157.715 862.477 158.608 859.845 157.536 857.671L147.241 836.793C146.169 834.619 143.537 833.725 141.363 834.797L124.422 843.151L116.068 826.21C114.996 824.035 112.364 823.142 110.19 824.214L93.249 832.568L84.8953 815.626C83.8232 813.452 81.1916 812.559 79.0173 813.631C76.8431 814.703 75.9497 817.335 77.0218 819.509L87.3166 840.387C88.3887 842.561 91.0204 843.455 93.1946 842.382L110.136 834.029L118.489 850.97C119.562 853.144 122.193 854.038 124.367 852.966L141.309 844.612L149.662 861.553Z" fill="#AA33FF"/>
<path d="M8.13695 435.63C10.5299 435.242 12.1552 432.988 11.7672 430.595C11.3793 428.202 9.12488 426.577 6.73194 426.965L-16.2462 430.69C-18.6391 431.078 -20.2645 433.333 -19.8765 435.726L-16.8534 454.371L-35.4987 457.394C-37.8917 457.782 -39.517 460.037 -39.129 462.429L-36.106 481.075L-54.7513 484.098C-57.1442 484.486 -58.7696 486.74 -58.3816 489.133C-57.9936 491.526 -55.7392 493.151 -53.3463 492.763L-30.3682 489.038C-27.9752 488.65 -26.3499 486.396 -26.7379 484.003L-29.7609 465.357L-11.1156 462.334C-8.72266 461.946 -7.09732 459.692 -7.4853 457.299L-10.5084 438.654L8.13695 435.63Z" fill="#AA33FF"/>
</g>
<g opacity="0.5">
<path fill-rule="evenodd" clip-rule="evenodd" d="M1552.74 -88.1719C1566.85 -10.2488 1522.35 61.3131 1472.63 122.981C1423.09 184.431 1362.68 243.241 1283.76 245.459C1202.44 247.744 1127.55 200.24 1080.38 134.007C1036.03 71.7488 1025.34 -9.74448 1050.61 -81.8864C1073.07 -145.992 1139.48 -173.952 1199.45 -205.904C1265.01 -240.835 1331.21 -292.425 1401.68 -268.942C1480.08 -242.815 1538.03 -169.46 1552.74 -88.1719Z" fill="#BFBEFC"/>
<path d="M1349.13 33.8097C1346.87 28.0929 1343.24 23.015 1338.57 19.0152C1335.01 15.9698 1330.93 13.6193 1326.53 12.0706C1324.25 11.2645 1322.75 8.93757 1323.29 6.57341C1323.83 4.20924 1326.19 2.70739 1328.49 3.46332C1334.27 5.35977 1339.63 8.37294 1344.27 12.3463C1350.03 17.2735 1354.5 23.5289 1357.29 30.5713C1360.09 37.6137 1361.13 45.2311 1360.32 52.7644C1359.66 58.8392 1357.82 64.7119 1354.92 70.0547C1353.76 72.1844 1351.01 72.7097 1349 71.3566C1346.99 70.0035 1346.48 67.2852 1347.59 65.1308C1349.73 60.9912 1351.09 56.4813 1351.59 51.8252C1352.24 45.71 1351.4 39.5265 1349.13 33.8097Z" fill="#AF05FA"/>
<path fill-rule="evenodd" clip-rule="evenodd" d="M1279.03 218.14C1262.77 221.802 1246.56 211.35 1242.84 194.795C1239.11 178.24 1249.27 161.851 1265.54 158.189C1281.8 154.527 1298.01 164.979 1301.74 181.534C1305.46 198.089 1295.3 214.478 1279.03 218.14ZM1276.62 207.434C1266.45 209.725 1255.98 203.206 1253.54 192.385C1251.11 181.563 1257.77 171.185 1267.95 168.895C1278.12 166.604 1288.59 173.123 1291.03 183.945C1293.47 194.766 1286.8 205.144 1276.62 207.434Z" fill="#0576F0"/>
<path d="M1176.95 24.2827C1176.72 22.1838 1174.3 21.1248 1172.6 22.3765L1143.51 43.78C1141.81 45.0317 1142.1 47.6553 1144.04 48.5025L1177.11 62.99C1179.05 63.8373 1181.18 62.2727 1180.94 60.1738L1176.95 24.2827Z" fill="#EE6D00"/>
<path d="M1076.83 194.359C1074.95 195.883 1074.65 198.646 1076.18 200.532C1077.7 202.418 1080.46 202.711 1082.35 201.188L1100.46 186.559C1102.34 185.035 1102.64 182.272 1101.11 180.386L1089.24 165.693L1103.94 153.823C1105.82 152.299 1106.11 149.536 1104.59 147.65L1092.72 132.957L1107.41 121.087C1109.3 119.563 1109.59 116.799 1108.07 114.914C1106.55 113.028 1103.78 112.734 1101.9 114.258L1083.79 128.887C1081.9 130.411 1081.61 133.174 1083.13 135.06L1095 149.753L1080.31 161.623C1078.43 163.147 1078.13 165.91 1079.66 167.796L1091.53 182.489L1076.83 194.359Z" fill="#AA33FF"/>
</g>
<g opacity="0.5">
<path fill-rule="evenodd" clip-rule="evenodd" d="M1294.35 612.123C1372.71 593.12 1457.1 602.542 1520.8 652.058C1586.9 703.435 1626.62 784.095 1623.28 867.785C1620.03 949.474 1565.81 1014.41 1504.22 1068.07C1435.73 1127.74 1358.7 1190.84 1269.03 1176.41C1172.48 1160.88 1088.1 1088.53 1056.19 995.976C1026.97 911.202 1074.38 825.015 1121.63 748.862C1162.38 683.188 1219.29 630.326 1294.35 612.123Z" fill="#BFBEFC"/>
<path d="M1248.73 693.906C1246.63 692.133 1243.74 691.617 1241.15 692.552L1224.17 698.691C1221.58 699.627 1219.69 701.871 1219.2 704.579L1216.03 722.358C1215.54 725.066 1216.54 727.827 1218.65 729.6L1232.45 741.24C1234.56 743.013 1237.45 743.529 1240.04 742.594L1257.02 736.455C1259.61 735.519 1261.5 733.275 1261.98 730.567L1265.16 712.788C1265.64 710.08 1264.64 707.319 1262.54 705.546L1248.73 693.906Z" fill="#00FE80"/>
<circle cx="1293.38" cy="570.828" r="11.5508" transform="rotate(-11.7949 1293.38 570.828)" fill="#E61B00"/>
<path d="M1138.49 904.41C1136.54 903.554 1134.27 904.439 1133.42 906.386L1121.03 934.588C1120.17 936.534 1121.06 938.806 1123 939.661L1151.21 952.049C1153.15 952.904 1155.42 952.019 1156.28 950.072L1168.67 921.871C1169.52 919.924 1168.64 917.653 1166.69 916.797L1138.49 904.41Z" fill="#E3026F"/>
<path d="M1356.75 751.762C1354.9 751.861 1353.85 753.926 1354.86 755.478L1372.15 782.025C1373.16 783.577 1375.47 783.453 1376.31 781.802L1390.66 753.56C1391.5 751.909 1390.23 749.968 1388.38 750.067L1356.75 751.762Z" fill="#EE6D00"/>
<path fill-rule="evenodd" clip-rule="evenodd" d="M1384.85 881.002C1387.84 895.317 1378.45 909.389 1363.88 912.431C1349.31 915.474 1335.08 906.336 1332.09 892.021C1329.1 877.705 1338.49 863.634 1353.06 860.591C1367.63 857.549 1381.86 866.687 1384.85 881.002ZM1375.43 882.97C1377.3 891.925 1371.44 901.02 1361.92 903.009C1352.39 904.998 1343.38 899.008 1341.51 890.053C1339.64 881.098 1345.5 872.003 1355.03 870.014C1364.55 868.025 1373.56 874.015 1375.43 882.97Z" fill="#0576F0"/>
<path d="M1104.59 729.072C1104.88 726.965 1103.4 725.024 1101.29 724.737C1099.19 724.449 1097.25 725.924 1096.96 728.031L1094.2 748.263C1093.91 750.369 1095.38 752.311 1097.49 752.598L1113.91 754.839L1111.67 771.255C1111.38 773.362 1112.86 775.303 1114.96 775.591L1131.38 777.831L1129.14 794.248C1128.85 796.355 1130.33 798.296 1132.43 798.584C1134.54 798.871 1136.48 797.396 1136.77 795.289L1139.53 775.058C1139.82 772.951 1138.34 771.01 1136.24 770.722L1119.82 768.482L1122.06 752.065C1122.35 749.958 1120.87 748.017 1118.76 747.729L1102.35 745.489L1104.59 729.072Z" fill="#AA33FF"/>
<path d="M997.629 898.012C995.834 898.472 995.21 900.702 996.505 902.026L1018.65 924.672C1019.95 925.997 1022.19 925.422 1022.69 923.638L1031.23 893.133C1031.73 891.349 1030.11 889.694 1028.32 890.153L997.629 898.012Z" fill="#EE6D00"/>
</g>
</svg>
